<svg xmlns="http://www.w3.org/2000/svg" xmlns:xlink="http://www.w3.org/1999/xlink" width="191" zoomAndPan="magnify" viewBox="0 0 143.25 30.000001" height="40" preserveAspectRatio="xMidYMid meet" version="1.0"><defs><g/><clipPath id="86ff6e7c6f"><path d="M 23.03125 7.46875 L 27 7.46875 L 27 12 L 23.03125 12 Z M 23.03125 7.46875 " clip-rule="nonzero"/></clipPath><clipPath id="af16a64229"><path d="M 33 7.46875 L 37.546875 7.46875 L 37.546875 12 L 33 12 Z M 33 7.46875 " clip-rule="nonzero"/></clipPath><clipPath id="7c9cf52ef2"><path d="M 23.03125 17 L 27 17 L 27 21.261719 L 23.03125 21.261719 Z M 23.03125 17 " clip-rule="nonzero"/></clipPath><clipPath id="6928ff7d7b"><path d="M 33 17 L 37.546875 17 L 37.546875 21.261719 L 33 21.261719 Z M 33 17 " clip-rule="nonzero"/></clipPath><clipPath id="51218b5c9f"><path d="M 23.03125 12 L 32 12 L 32 21.261719 L 23.03125 21.261719 Z M 23.03125 12 " clip-rule="nonzero"/></clipPath><clipPath id="e3cc889d7f"><path d="M 28 7.46875 L 37.546875 7.46875 L 37.546875 17 L 28 17 Z M 28 7.46875 " clip-rule="nonzero"/></clipPath></defs><g clip-path="url(#86ff6e7c6f)"><path fill="#051134" d="M 26.726562 9.359375 C 26.726562 10.355469 25.917969 11.164062 24.921875 11.164062 C 23.921875 11.164062 23.113281 10.355469 23.113281 9.359375 C 23.113281 8.363281 23.921875 7.554688 24.921875 7.554688 C 25.917969 7.554688 26.726562 8.363281 26.726562 9.359375 Z M 26.726562 9.359375 " fill-opacity="1" fill-rule="nonzero"/></g><g clip-path="url(#af16a64229)"><path fill="#051134" d="M 37.214844 9.359375 C 37.214844 10.355469 36.40625 11.164062 35.410156 11.164062 C 34.414062 11.164062 33.605469 10.355469 33.605469 9.359375 C 33.605469 8.363281 34.414062 7.554688 35.410156 7.554688 C 36.40625 7.554688 37.214844 8.363281 37.214844 9.359375 Z M 37.214844 9.359375 " fill-opacity="1" fill-rule="nonzero"/></g><path fill="#051134" d="M 31.96875 14.53125 C 31.96875 15.527344 31.164062 16.335938 30.164062 16.335938 C 29.167969 16.335938 28.359375 15.527344 28.359375 14.53125 C 28.359375 13.535156 29.167969 12.726562 30.164062 12.726562 C 31.164062 12.726562 31.96875 13.535156 31.96875 14.53125 Z M 31.96875 14.53125 " fill-opacity="1" fill-rule="nonzero"/><g clip-path="url(#7c9cf52ef2)"><path fill="#051134" d="M 26.726562 19.703125 C 26.726562 20.703125 25.917969 21.507812 24.921875 21.507812 C 23.921875 21.507812 23.113281 20.703125 23.113281 19.703125 C 23.113281 18.707031 23.921875 17.898438 24.921875 17.898438 C 25.917969 17.898438 26.726562 18.707031 26.726562 19.703125 Z M 26.726562 19.703125 " fill-opacity="1" fill-rule="nonzero"/></g><g clip-path="url(#6928ff7d7b)"><path fill="#051134" d="M 37.214844 19.703125 C 37.214844 20.703125 36.40625 21.507812 35.410156 21.507812 C 34.414062 21.507812 33.605469 20.703125 33.605469 19.703125 C 33.605469 18.707031 34.414062 17.898438 35.410156 17.898438 C 36.40625 17.898438 37.214844 18.707031 37.214844 19.703125 Z M 37.214844 19.703125 " fill-opacity="1" fill-rule="nonzero"/></g><g clip-path="url(#51218b5c9f)"><path fill="#606261" d="M 30.339844 17.90625 C 30.324219 17.90625 30.308594 17.902344 30.292969 17.902344 C 29.613281 17.855469 28.96875 17.566406 28.480469 17.085938 L 27.5625 16.179688 C 27.074219 15.695312 26.78125 15.050781 26.71875 14.363281 C 26.71875 14.355469 26.714844 14.347656 26.714844 14.34375 C 26.628906 13.484375 25.925781 12.796875 25.0625 12.730469 C 23.953125 12.644531 23.035156 13.566406 23.121094 14.675781 C 23.1875 15.542969 23.882812 16.246094 24.746094 16.328125 C 24.761719 16.328125 24.777344 16.332031 24.792969 16.332031 C 25.472656 16.378906 26.117188 16.671875 26.605469 17.152344 L 27.523438 18.054688 C 28.011719 18.539062 28.304688 19.1875 28.367188 19.871094 C 28.367188 19.878906 28.367188 19.886719 28.371094 19.894531 C 28.457031 20.753906 29.160156 21.4375 30.023438 21.503906 C 31.132812 21.589844 32.050781 20.667969 31.964844 19.558594 C 31.898438 18.691406 31.203125 17.988281 30.339844 17.90625 Z M 30.339844 17.90625 " fill-opacity="1" fill-rule="nonzero"/></g><g clip-path="url(#e3cc889d7f)"><path fill="#606261" d="M 35.5625 12.734375 C 35.554688 12.730469 35.546875 12.730469 35.539062 12.730469 C 34.832031 12.679688 34.164062 12.390625 33.660156 11.886719 L 32.804688 11.03125 C 32.3125 10.539062 32.023438 9.890625 31.964844 9.199219 C 31.964844 9.191406 31.960938 9.183594 31.960938 9.179688 C 31.878906 8.316406 31.175781 7.628906 30.3125 7.558594 C 29.199219 7.46875 28.277344 8.394531 28.367188 9.507812 C 28.433594 10.367188 29.125 11.070312 29.984375 11.15625 C 29.992188 11.15625 30 11.15625 30.003906 11.15625 C 30.695312 11.214844 31.347656 11.503906 31.835938 11.996094 L 32.769531 12.925781 C 33.25 13.410156 33.542969 14.046875 33.613281 14.726562 C 33.617188 14.734375 33.617188 14.738281 33.617188 14.746094 C 33.714844 15.597656 34.417969 16.265625 35.269531 16.332031 C 36.378906 16.414062 37.292969 15.496094 37.210938 14.390625 C 37.144531 13.515625 36.4375 12.804688 35.5625 12.734375 Z M 35.5625 12.734375 " fill-opacity="1" fill-rule="nonzero"/></g><g fill="#051134" fill-opacity="1"><g transform="translate(41.386448, 20.179805)"><g><path d="M 4.5625 0.15625 C 3.820312 0.15625 3.164062 0.0507812 2.59375 -0.15625 C 2.019531 -0.363281 1.46875 -0.703125 0.9375 -1.171875 C 0.820312 -1.253906 0.734375 -1.351562 0.671875 -1.46875 C 0.617188 -1.59375 0.59375 -1.710938 0.59375 -1.828125 C 0.59375 -2.023438 0.664062 -2.203125 0.8125 -2.359375 C 0.957031 -2.515625 1.140625 -2.59375 1.359375 -2.59375 C 1.523438 -2.59375 1.675781 -2.535156 1.8125 -2.421875 C 2.207031 -2.054688 2.617188 -1.78125 3.046875 -1.59375 C 3.472656 -1.414062 3.972656 -1.328125 4.546875 -1.328125 C 4.960938 -1.328125 5.34375 -1.394531 5.6875 -1.53125 C 6.03125 -1.664062 6.300781 -1.84375 6.5 -2.0625 C 6.707031 -2.289062 6.8125 -2.554688 6.8125 -2.859375 C 6.8125 -3.222656 6.707031 -3.523438 6.5 -3.765625 C 6.289062 -4.015625 5.988281 -4.21875 5.59375 -4.375 C 5.195312 -4.53125 4.71875 -4.664062 4.15625 -4.78125 C 3.644531 -4.875 3.1875 -5 2.78125 -5.15625 C 2.375 -5.320312 2.023438 -5.53125 1.734375 -5.78125 C 1.453125 -6.039062 1.234375 -6.34375 1.078125 -6.6875 C 0.921875 -7.039062 0.84375 -7.445312 0.84375 -7.90625 C 0.84375 -8.539062 1.003906 -9.082031 1.328125 -9.53125 C 1.660156 -9.976562 2.109375 -10.328125 2.671875 -10.578125 C 3.242188 -10.828125 3.882812 -10.953125 4.59375 -10.953125 C 5.238281 -10.953125 5.84375 -10.847656 6.40625 -10.640625 C 6.976562 -10.441406 7.4375 -10.175781 7.78125 -9.84375 C 8.03125 -9.625 8.15625 -9.390625 8.15625 -9.140625 C 8.15625 -8.960938 8.078125 -8.789062 7.921875 -8.625 C 7.773438 -8.46875 7.609375 -8.390625 7.421875 -8.390625 C 7.273438 -8.390625 7.148438 -8.429688 7.046875 -8.515625 C 6.878906 -8.691406 6.65625 -8.847656 6.375 -8.984375 C 6.101562 -9.117188 5.8125 -9.234375 5.5 -9.328125 C 5.1875 -9.421875 4.882812 -9.46875 4.59375 -9.46875 C 4.132812 -9.46875 3.738281 -9.398438 3.40625 -9.265625 C 3.082031 -9.140625 2.832031 -8.96875 2.65625 -8.75 C 2.476562 -8.53125 2.390625 -8.269531 2.390625 -7.96875 C 2.390625 -7.625 2.488281 -7.335938 2.6875 -7.109375 C 2.882812 -6.878906 3.164062 -6.695312 3.53125 -6.5625 C 3.894531 -6.425781 4.304688 -6.300781 4.765625 -6.1875 C 5.328125 -6.0625 5.832031 -5.921875 6.28125 -5.765625 C 6.726562 -5.609375 7.101562 -5.410156 7.40625 -5.171875 C 7.71875 -4.929688 7.957031 -4.628906 8.125 -4.265625 C 8.289062 -3.910156 8.375 -3.46875 8.375 -2.9375 C 8.375 -2.3125 8.195312 -1.765625 7.84375 -1.296875 C 7.5 -0.835938 7.039062 -0.476562 6.46875 -0.21875 C 5.894531 0.03125 5.257812 0.15625 4.5625 0.15625 Z M 4.5625 0.15625 "/></g></g></g><g fill="#051134" fill-opacity="1"><g transform="translate(50.401902, 20.179805)"><g><path d="M 7.71875 -8.234375 C 7.945312 -8.234375 8.132812 -8.15625 8.28125 -8 C 8.425781 -7.851562 8.5 -7.671875 8.5 -7.453125 L 8.5 -0.78125 C 8.5 -0.5625 8.425781 -0.375 8.28125 -0.21875 C 8.132812 -0.0703125 7.945312 0 7.71875 0 C 7.507812 0 7.328125 -0.0703125 7.171875 -0.21875 C 7.023438 -0.375 6.953125 -0.5625 6.953125 -0.78125 L 6.953125 -1.890625 L 7.28125 -1.84375 C 7.28125 -1.664062 7.203125 -1.460938 7.046875 -1.234375 C 6.898438 -1.003906 6.695312 -0.785156 6.4375 -0.578125 C 6.1875 -0.367188 5.882812 -0.191406 5.53125 -0.046875 C 5.1875 0.0859375 4.8125 0.15625 4.40625 0.15625 C 3.695312 0.15625 3.0625 -0.0234375 2.5 -0.390625 C 1.9375 -0.753906 1.488281 -1.253906 1.15625 -1.890625 C 0.820312 -2.535156 0.65625 -3.265625 0.65625 -4.078125 C 0.65625 -4.910156 0.820312 -5.640625 1.15625 -6.265625 C 1.488281 -6.898438 1.929688 -7.394531 2.484375 -7.75 C 3.046875 -8.113281 3.671875 -8.296875 4.359375 -8.296875 C 4.804688 -8.296875 5.21875 -8.222656 5.59375 -8.078125 C 5.96875 -7.929688 6.289062 -7.742188 6.5625 -7.515625 C 6.84375 -7.296875 7.054688 -7.0625 7.203125 -6.8125 C 7.359375 -6.5625 7.4375 -6.320312 7.4375 -6.09375 L 6.953125 -6.046875 L 6.953125 -7.453125 C 6.953125 -7.660156 7.023438 -7.84375 7.171875 -8 C 7.328125 -8.15625 7.507812 -8.234375 7.71875 -8.234375 Z M 4.578125 -1.265625 C 5.066406 -1.265625 5.492188 -1.382812 5.859375 -1.625 C 6.234375 -1.875 6.519531 -2.210938 6.71875 -2.640625 C 6.925781 -3.066406 7.03125 -3.546875 7.03125 -4.078125 C 7.03125 -4.609375 6.925781 -5.082031 6.71875 -5.5 C 6.519531 -5.925781 6.234375 -6.257812 5.859375 -6.5 C 5.492188 -6.75 5.066406 -6.875 4.578125 -6.875 C 4.109375 -6.875 3.691406 -6.75 3.328125 -6.5 C 2.960938 -6.257812 2.671875 -5.925781 2.453125 -5.5 C 2.242188 -5.082031 2.140625 -4.609375 2.140625 -4.078125 C 2.140625 -3.546875 2.242188 -3.066406 2.453125 -2.640625 C 2.671875 -2.210938 2.960938 -1.875 3.328125 -1.625 C 3.691406 -1.382812 4.109375 -1.265625 4.578125 -1.265625 Z M 4.578125 -1.265625 "/></g></g></g><g fill="#051134" fill-opacity="1"><g transform="translate(59.972156, 20.179805)"><g><path d="M 7.71875 -8.234375 C 7.945312 -8.234375 8.132812 -8.15625 8.28125 -8 C 8.425781 -7.851562 8.5 -7.671875 8.5 -7.453125 L 8.5 -0.78125 C 8.5 -0.5625 8.425781 -0.375 8.28125 -0.21875 C 8.132812 -0.0703125 7.945312 0 7.71875 0 C 7.507812 0 7.328125 -0.0703125 7.171875 -0.21875 C 7.023438 -0.375 6.953125 -0.5625 6.953125 -0.78125 L 6.953125 -1.890625 L 7.28125 -1.84375 C 7.28125 -1.664062 7.203125 -1.460938 7.046875 -1.234375 C 6.898438 -1.003906 6.695312 -0.785156 6.4375 -0.578125 C 6.1875 -0.367188 5.882812 -0.191406 5.53125 -0.046875 C 5.1875 0.0859375 4.8125 0.15625 4.40625 0.15625 C 3.695312 0.15625 3.0625 -0.0234375 2.5 -0.390625 C 1.9375 -0.753906 1.488281 -1.253906 1.15625 -1.890625 C 0.820312 -2.535156 0.65625 -3.265625 0.65625 -4.078125 C 0.65625 -4.910156 0.820312 -5.640625 1.15625 -6.265625 C 1.488281 -6.898438 1.929688 -7.394531 2.484375 -7.75 C 3.046875 -8.113281 3.671875 -8.296875 4.359375 -8.296875 C 4.804688 -8.296875 5.21875 -8.222656 5.59375 -8.078125 C 5.96875 -7.929688 6.289062 -7.742188 6.5625 -7.515625 C 6.84375 -7.296875 7.054688 -7.0625 7.203125 -6.8125 C 7.359375 -6.5625 7.4375 -6.320312 7.4375 -6.09375 L 6.953125 -6.046875 L 6.953125 -7.453125 C 6.953125 -7.660156 7.023438 -7.84375 7.171875 -8 C 7.328125 -8.15625 7.507812 -8.234375 7.71875 -8.234375 Z M 4.578125 -1.265625 C 5.066406 -1.265625 5.492188 -1.382812 5.859375 -1.625 C 6.234375 -1.875 6.519531 -2.210938 6.71875 -2.640625 C 6.925781 -3.066406 7.03125 -3.546875 7.03125 -4.078125 C 7.03125 -4.609375 6.925781 -5.082031 6.71875 -5.5 C 6.519531 -5.925781 6.234375 -6.257812 5.859375 -6.5 C 5.492188 -6.75 5.066406 -6.875 4.578125 -6.875 C 4.109375 -6.875 3.691406 -6.75 3.328125 -6.5 C 2.960938 -6.257812 2.671875 -5.925781 2.453125 -5.5 C 2.242188 -5.082031 2.140625 -4.609375 2.140625 -4.078125 C 2.140625 -3.546875 2.242188 -3.066406 2.453125 -2.640625 C 2.671875 -2.210938 2.960938 -1.875 3.328125 -1.625 C 3.691406 -1.382812 4.109375 -1.265625 4.578125 -1.265625 Z M 4.578125 -1.265625 "/></g></g></g><g fill="#051134" fill-opacity="1"><g transform="translate(69.54241, 20.179805)"><g><path d="M 0.59375 -1.265625 C 0.507812 -1.410156 0.472656 -1.578125 0.484375 -1.765625 C 0.492188 -1.953125 0.597656 -2.113281 0.796875 -2.25 C 0.941406 -2.34375 1.09375 -2.378906 1.25 -2.359375 C 1.414062 -2.347656 1.570312 -2.269531 1.71875 -2.125 C 2 -1.8125 2.316406 -1.5625 2.671875 -1.375 C 3.023438 -1.1875 3.457031 -1.09375 3.96875 -1.09375 C 4.164062 -1.101562 4.375 -1.132812 4.59375 -1.1875 C 4.8125 -1.25 4.992188 -1.351562 5.140625 -1.5 C 5.296875 -1.65625 5.375 -1.875 5.375 -2.15625 C 5.375 -2.414062 5.289062 -2.617188 5.125 -2.765625 C 4.96875 -2.921875 4.753906 -3.046875 4.484375 -3.140625 C 4.222656 -3.242188 3.9375 -3.335938 3.625 -3.421875 C 3.289062 -3.515625 2.957031 -3.617188 2.625 -3.734375 C 2.289062 -3.847656 1.988281 -3.992188 1.71875 -4.171875 C 1.457031 -4.347656 1.238281 -4.582031 1.0625 -4.875 C 0.894531 -5.164062 0.8125 -5.519531 0.8125 -5.9375 C 0.8125 -6.414062 0.945312 -6.828125 1.21875 -7.171875 C 1.5 -7.523438 1.859375 -7.800781 2.296875 -8 C 2.734375 -8.195312 3.207031 -8.296875 3.71875 -8.296875 C 4.007812 -8.296875 4.320312 -8.253906 4.65625 -8.171875 C 4.988281 -8.097656 5.304688 -7.976562 5.609375 -7.8125 C 5.921875 -7.65625 6.191406 -7.441406 6.421875 -7.171875 C 6.515625 -7.035156 6.566406 -6.875 6.578125 -6.6875 C 6.597656 -6.507812 6.519531 -6.347656 6.34375 -6.203125 C 6.21875 -6.097656 6.066406 -6.050781 5.890625 -6.0625 C 5.710938 -6.070312 5.566406 -6.128906 5.453125 -6.234375 C 5.265625 -6.472656 5.015625 -6.660156 4.703125 -6.796875 C 4.390625 -6.941406 4.039062 -7.015625 3.65625 -7.015625 C 3.457031 -7.015625 3.253906 -6.984375 3.046875 -6.921875 C 2.835938 -6.867188 2.660156 -6.769531 2.515625 -6.625 C 2.367188 -6.488281 2.296875 -6.28125 2.296875 -6 C 2.296875 -5.738281 2.378906 -5.53125 2.546875 -5.375 C 2.722656 -5.226562 2.945312 -5.101562 3.21875 -5 C 3.5 -4.894531 3.804688 -4.800781 4.140625 -4.71875 C 4.453125 -4.632812 4.765625 -4.535156 5.078125 -4.421875 C 5.390625 -4.304688 5.671875 -4.160156 5.921875 -3.984375 C 6.179688 -3.804688 6.390625 -3.578125 6.546875 -3.296875 C 6.703125 -3.015625 6.78125 -2.65625 6.78125 -2.21875 C 6.78125 -1.71875 6.632812 -1.289062 6.34375 -0.9375 C 6.050781 -0.582031 5.679688 -0.3125 5.234375 -0.125 C 4.785156 0.0625 4.316406 0.15625 3.828125 0.15625 C 3.242188 0.15625 2.660156 0.0507812 2.078125 -0.15625 C 1.492188 -0.375 1 -0.742188 0.59375 -1.265625 Z M 0.59375 -1.265625 "/></g></g></g><g fill="#051134" fill-opacity="1"><g transform="translate(76.908883, 20.179805)"><g><path d="M 5.984375 -10.796875 C 6.929688 -10.796875 7.648438 -10.5625 8.140625 -10.09375 C 8.628906 -9.632812 8.875 -8.960938 8.875 -8.078125 C 8.875 -7.617188 8.757812 -7.203125 8.53125 -6.828125 C 8.3125 -6.453125 7.988281 -6.15625 7.5625 -5.9375 C 7.132812 -5.71875 6.601562 -5.601562 5.96875 -5.59375 L 6 -6.171875 C 6.34375 -6.171875 6.710938 -6.125 7.109375 -6.03125 C 7.503906 -5.9375 7.875 -5.773438 8.21875 -5.546875 C 8.570312 -5.328125 8.859375 -5.023438 9.078125 -4.640625 C 9.304688 -4.253906 9.421875 -3.769531 9.421875 -3.1875 C 9.421875 -2.5625 9.316406 -2.039062 9.109375 -1.625 C 8.910156 -1.207031 8.640625 -0.878906 8.296875 -0.640625 C 7.953125 -0.410156 7.578125 -0.242188 7.171875 -0.140625 C 6.765625 -0.046875 6.367188 0 5.984375 0 L 2.03125 0 C 1.820312 0 1.640625 -0.0703125 1.484375 -0.21875 C 1.328125 -0.375 1.25 -0.5625 1.25 -0.78125 L 1.25 -10.015625 C 1.25 -10.234375 1.328125 -10.414062 1.484375 -10.5625 C 1.640625 -10.71875 1.820312 -10.796875 2.03125 -10.796875 Z M 5.765625 -9.28125 L 2.734375 -9.28125 L 2.921875 -9.53125 L 2.921875 -6.21875 L 2.75 -6.390625 L 5.796875 -6.390625 C 6.171875 -6.398438 6.5 -6.523438 6.78125 -6.765625 C 7.0625 -7.003906 7.203125 -7.359375 7.203125 -7.828125 C 7.203125 -8.316406 7.070312 -8.679688 6.8125 -8.921875 C 6.5625 -9.160156 6.210938 -9.28125 5.765625 -9.28125 Z M 5.875 -4.875 L 2.8125 -4.875 L 2.921875 -4.984375 L 2.921875 -1.34375 L 2.796875 -1.484375 L 5.96875 -1.484375 C 6.5 -1.484375 6.925781 -1.625 7.25 -1.90625 C 7.582031 -2.1875 7.75 -2.613281 7.75 -3.1875 C 7.75 -3.675781 7.648438 -4.035156 7.453125 -4.265625 C 7.265625 -4.503906 7.023438 -4.664062 6.734375 -4.75 C 6.453125 -4.832031 6.164062 -4.875 5.875 -4.875 Z M 5.875 -4.875 "/></g></g></g><g fill="#051134" fill-opacity="1"><g transform="translate(86.987705, 20.179805)"><g><path d="M 8.859375 -4.0625 C 8.859375 -3.238281 8.675781 -2.507812 8.3125 -1.875 C 7.945312 -1.238281 7.457031 -0.738281 6.84375 -0.375 C 6.226562 -0.0195312 5.535156 0.15625 4.765625 0.15625 C 3.992188 0.15625 3.300781 -0.0195312 2.6875 -0.375 C 2.070312 -0.738281 1.578125 -1.238281 1.203125 -1.875 C 0.835938 -2.507812 0.65625 -3.238281 0.65625 -4.0625 C 0.65625 -4.894531 0.835938 -5.625 1.203125 -6.25 C 1.578125 -6.882812 2.070312 -7.382812 2.6875 -7.75 C 3.300781 -8.113281 3.992188 -8.296875 4.765625 -8.296875 C 5.535156 -8.296875 6.226562 -8.113281 6.84375 -7.75 C 7.457031 -7.382812 7.945312 -6.882812 8.3125 -6.25 C 8.675781 -5.625 8.859375 -4.894531 8.859375 -4.0625 Z M 7.3125 -4.0625 C 7.3125 -4.625 7.195312 -5.113281 6.96875 -5.53125 C 6.738281 -5.945312 6.429688 -6.273438 6.046875 -6.515625 C 5.660156 -6.753906 5.234375 -6.875 4.765625 -6.875 C 4.296875 -6.875 3.863281 -6.753906 3.46875 -6.515625 C 3.082031 -6.273438 2.773438 -5.945312 2.546875 -5.53125 C 2.316406 -5.113281 2.203125 -4.625 2.203125 -4.0625 C 2.203125 -3.507812 2.316406 -3.019531 2.546875 -2.59375 C 2.773438 -2.175781 3.082031 -1.847656 3.46875 -1.609375 C 3.863281 -1.378906 4.296875 -1.265625 4.765625 -1.265625 C 5.234375 -1.265625 5.660156 -1.378906 6.046875 -1.609375 C 6.429688 -1.847656 6.738281 -2.175781 6.96875 -2.59375 C 7.195312 -3.019531 7.3125 -3.507812 7.3125 -4.0625 Z M 7.3125 -4.0625 "/></g></g></g><g fill="#051134" fill-opacity="1"><g transform="translate(96.496316, 20.179805)"><g><path d="M 8.859375 -4.0625 C 8.859375 -3.238281 8.675781 -2.507812 8.3125 -1.875 C 7.945312 -1.238281 7.457031 -0.738281 6.84375 -0.375 C 6.226562 -0.0195312 5.535156 0.15625 4.765625 0.15625 C 3.992188 0.15625 3.300781 -0.0195312 2.6875 -0.375 C 2.070312 -0.738281 1.578125 -1.238281 1.203125 -1.875 C 0.835938 -2.507812 0.65625 -3.238281 0.65625 -4.0625 C 0.65625 -4.894531 0.835938 -5.625 1.203125 -6.25 C 1.578125 -6.882812 2.070312 -7.382812 2.6875 -7.75 C 3.300781 -8.113281 3.992188 -8.296875 4.765625 -8.296875 C 5.535156 -8.296875 6.226562 -8.113281 6.84375 -7.75 C 7.457031 -7.382812 7.945312 -6.882812 8.3125 -6.25 C 8.675781 -5.625 8.859375 -4.894531 8.859375 -4.0625 Z M 7.3125 -4.0625 C 7.3125 -4.625 7.195312 -5.113281 6.96875 -5.53125 C 6.738281 -5.945312 6.429688 -6.273438 6.046875 -6.515625 C 5.660156 -6.753906 5.234375 -6.875 4.765625 -6.875 C 4.296875 -6.875 3.863281 -6.753906 3.46875 -6.515625 C 3.082031 -6.273438 2.773438 -5.945312 2.546875 -5.53125 C 2.316406 -5.113281 2.203125 -4.625 2.203125 -4.0625 C 2.203125 -3.507812 2.316406 -3.019531 2.546875 -2.59375 C 2.773438 -2.175781 3.082031 -1.847656 3.46875 -1.609375 C 3.863281 -1.378906 4.296875 -1.265625 4.765625 -1.265625 C 5.234375 -1.265625 5.660156 -1.378906 6.046875 -1.609375 C 6.429688 -1.847656 6.738281 -2.175781 6.96875 -2.59375 C 7.195312 -3.019531 7.3125 -3.507812 7.3125 -4.0625 Z M 7.3125 -4.0625 "/></g></g></g><g fill="#051134" fill-opacity="1"><g transform="translate(106.004927, 20.179805)"><g><path d="M 1.96875 0 C 1.757812 0 1.578125 -0.0703125 1.421875 -0.21875 C 1.273438 -0.375 1.203125 -0.5625 1.203125 -0.78125 L 1.203125 -10.625 C 1.203125 -10.851562 1.273438 -11.039062 1.421875 -11.1875 C 1.578125 -11.332031 1.757812 -11.40625 1.96875 -11.40625 C 2.195312 -11.40625 2.382812 -11.332031 2.53125 -11.1875 C 2.675781 -11.039062 2.75 -10.851562 2.75 -10.625 L 2.75 -0.78125 C 2.75 -0.5625 2.675781 -0.375 2.53125 -0.21875 C 2.382812 -0.0703125 2.195312 0 1.96875 0 Z M 7 -8.140625 C 7.195312 -8.140625 7.363281 -8.054688 7.5 -7.890625 C 7.644531 -7.734375 7.71875 -7.570312 7.71875 -7.40625 C 7.71875 -7.195312 7.625 -7.003906 7.4375 -6.828125 L 2.609375 -2.515625 L 2.546875 -4.28125 L 6.4375 -7.890625 C 6.59375 -8.054688 6.78125 -8.140625 7 -8.140625 Z M 7.1875 -0.015625 C 6.96875 -0.015625 6.78125 -0.101562 6.625 -0.28125 L 3.546875 -3.53125 L 4.71875 -4.609375 L 7.71875 -1.359375 C 7.882812 -1.179688 7.96875 -0.984375 7.96875 -0.765625 C 7.96875 -0.546875 7.878906 -0.363281 7.703125 -0.21875 C 7.523438 -0.0820312 7.351562 -0.015625 7.1875 -0.015625 Z M 7.1875 -0.015625 "/></g></g></g></svg>